<svg xmlns="http://www.w3.org/2000/svg" width="154" height="90" viewBox="0 0 154 90"><path d="M31.272 70.444h2.336c-.048 1.349-1.557 2.456-2.959 2.456-1.952 0-3.51-1.645-3.51-3.377 0-1.854 1.582-3.355 3.606-3.355 1.102 0 2.192.537 2.839 1.349l.791-.69c-.887-1.021-2.276-1.602-3.678-1.602-2.599 0-4.684 1.952-4.684 4.332 0 2.291 2.037 4.287 4.564 4.287s4.276-1.743 4.276-4.014v-.329h-3.582v.943zm4.701 3.224h4.852v-.942h-3.726v-3.126h3.618v-.942h-3.618v-2.313h3.726v-.945h-4.852v8.268zm12.916-2.16l-6.78-6.502v8.662h1.126v-6.162l6.78 6.502v-8.608h-1.126v6.108zm2.736 2.16h4.852v-.942h-3.726v-3.126h3.618v-.942h-3.618v-2.313h3.726v-.945h-4.852v8.268zm11.82-.053l-2.809-3.544c1.306-.143 2.168-1.129 2.168-2.313 0-.789-.431-1.568-1.186-1.974-.718-.373-1.58-.384-2.383-.384h-1.366v8.268h1.126v-3.498h.467l2.659 3.498h2.507l1.03-2.072h4.145l1.03 2.072h1.209l-4.312-8.618-4.285 8.565zm-4.091-4.301h-.359v-2.993h.3c1.114 0 2.456.187 2.456 1.48-.001 1.316-1.246 1.513-2.397 1.513zm6.772 1.338l1.605-3.344 1.605 3.344h-3.21zm7.803-5.252h-1.126v8.268h3.869v-.942h-2.743v-7.326zm11.528 0h-5.415v.943h2.144v7.324h1.127v-7.324h2.145v-.943zm-1.028 8.268h1.21l1.03-2.072h4.145l1.03 2.072h1.209l-4.312-8.618-4.312 8.618zm2.707-3.016l1.605-3.344 1.604 3.344h-3.209zm13.006 2.824l-3.958-4.358 4.062-3.717h-1.474l-3.833 3.586v-3.587h-1.126v8.268h1.126v-3.454l.455-.395 3.401 3.849h2.46l1.03-2.072h4.145l1.03 2.072h1.21l-4.313-8.618-4.215 8.426zm2.61-2.824l1.605-3.344 1.605 3.344h-3.21zm6.665 3.016h1.126v-4.057h3.139v-.943h-3.139v-2.324h3.246v-.944h-4.372v8.268zm11.023-3.388c0 1.349-.443 2.599-2.181 2.599-1.736 0-2.18-1.25-2.18-2.599v-4.88h-1.126v5.23c0 1.82 1.233 3.213 3.306 3.213s3.307-1.393 3.307-3.213v-5.23h-1.126v4.88zm3.814-4.88h-1.126v8.268h3.869v-.942h-2.743v-7.326zm-37.492-27.846l-5.215 4.726v12.894h5.215v-17.62zm-31.14 17.619v-17.619l-5.214 4.726v4.916c.009 1.669-.934 3.984-3.713 3.984-1.159 0-3.528-.1-3.528-3.334v-10.292l-5.212 4.726v8.197c0 1.18.934 4.957 5.962 4.957 1.134 0 4.363-.52 6.492-2.643v2.382h5.213zm39.562-31.419l-5.213 5.306v26.113h5.213v-31.419zm15.578 26.602s-.43 2.385-4.014 2.365c-5.625-.028-5.085-6.285-5.085-6.285 0-5.339 3.498-5.718 4.654-5.713 5.438.032 4.874 4.192 4.874 4.192h-7.004l-2.163 3.09 13.454.001s1.743-10.626-9.596-10.686c-3.168-.016-8.32 1.916-8.326 10.083 0 .931.352 8.598 9.312 8.594.418 0 5.722-.264 8.288-4.331l-4.394-1.31zm13.83-5.44l-2.161 3.09 13.45.001s1.751-10.626-9.59-10.686c-3.17-.016-8.32 1.916-8.329 10.083 0 .931.355 8.598 9.315 8.594.416 0 5.72-.264 8.29-4.331l-4.399-1.311s-.43 2.385-4.016 2.365c-5.624-.028-5.082-6.285-5.082-6.285 0-5.339 3.5-5.718 4.652-5.713 5.438.032 4.878 4.192 4.878 4.192h-7.008zm-89.82 4.413v-35.317l-6.064 5.497v28.185c-.158 1.979-1.045 3.032-3.245 3.34h-.153c-2.233-.313-3.116-1.397-3.253-3.436v-10.044l-6.057 5.489v6.286c.832 6.051 7.291 6.518 9.387 6.481 2.093.037 8.552-.43 9.385-6.481zm35.43-12.094c-2.026-.071-5.282 1.155-6.205 2.725v-10.773l-.034-.021.031-.685-5.215-4.727v31.419h5.215v-1.372c.755.833 2.692 2.334 6.722 2.188 2.498-.093 8.261-1.361 7.953-10.211-.083-2.39-1.782-8.304-8.467-8.543zm-1.525 14.749c-2.898 0-5.249-2.39-5.249-5.343 0-2.948 2.351-5.34 5.249-5.34 2.896 0 5.247 2.392 5.247 5.34 0 2.954-2.351 5.343-5.247 5.343z" fill-rule="evenodd" clip-rule="evenodd" fill="#fff"/></svg>